<svg width="25" height="27" viewBox="0 0 25 27" fill="none" xmlns="http://www.w3.org/2000/svg">
<path d="M20.7802 10.2806L13.2802 17.7806C13.2105 17.8503 13.1278 17.9056 13.0368 17.9433C12.9457 17.9811 12.8481 18.0005 12.7496 18.0005C12.651 18.0005 12.5534 17.9811 12.4624 17.9433C12.3713 17.9056 12.2886 17.8503 12.2189 17.7806L4.71894 10.2806C4.57821 10.1398 4.49915 9.94895 4.49915 9.74993C4.49915 9.55091 4.57821 9.36003 4.71894 9.2193C4.85967 9.07857 5.05054 8.99951 5.24956 8.99951C5.44859 8.99951 5.63946 9.07857 5.78019 9.2193L12.7496 16.1896L19.7189 9.2193C19.7886 9.14962 19.8713 9.09435 19.9624 9.05663C20.0534 9.01892 20.151 8.99951 20.2496 8.99951C20.3481 8.99951 20.4457 9.01892 20.5367 9.05663C20.6278 9.09435 20.7105 9.14962 20.7802 9.2193C20.8499 9.28899 20.9051 9.37171 20.9429 9.46276C20.9806 9.5538 21 9.65138 21 9.74993C21 9.84847 20.9806 9.94606 20.9429 10.0371C20.9051 10.1281 20.8499 10.2109 20.7802 10.2806Z" fill="#2C3A47"/>
</svg>
