<svg width="18" height="19" viewBox="0 0 18 19" fill="none" xmlns="http://www.w3.org/2000/svg">
<path d="M18 9.24931V18.2493C18 18.4482 17.921 18.639 17.7803 18.7796C17.6397 18.9203 17.4489 18.9993 17.25 18.9993H12C11.8011 18.9993 11.6103 18.9203 11.4697 18.7796C11.329 18.639 11.25 18.4482 11.25 18.2493V13.3743C11.25 13.2748 11.2105 13.1795 11.1402 13.1091C11.0698 13.0388 10.9745 12.9993 10.875 12.9993H7.125C7.02554 12.9993 6.93016 13.0388 6.85983 13.1091C6.78951 13.1795 6.75 13.2748 6.75 13.3743V18.2493C6.75 18.4482 6.67098 18.639 6.53033 18.7796C6.38968 18.9203 6.19891 18.9993 6 18.9993H0.75C0.551088 18.9993 0.360322 18.9203 0.21967 18.7796C0.0790178 18.639 0 18.4482 0 18.2493V9.24931C0.000184396 8.85155 0.15834 8.47016 0.439687 8.18899L7.93969 0.688992C8.22096 0.4079 8.60235 0.25 9 0.25C9.39765 0.25 9.77904 0.4079 10.0603 0.688992L17.5603 8.18899C17.8417 8.47016 17.9998 8.85155 18 9.24931Z" fill="#0568FF"/>
</svg>
